<svg xmlns="http://www.w3.org/2000/svg" viewBox="0 0 737.32 418.37"><title>snow</title><g id="Layer_2" data-name="Layer 2"><g id="flakes"><path d="M74.19,107.06c3.22,0,3.22-5,0-5s-3.22,5,0,5Z" style="fill:#fff"/><path d="M371.19,53.87a5,5,0,1,0-5-5,5,5,0,0,0,5,5Z" style="fill:#fff"/><path d="M399.88,171.19c3.22,0,3.22-5,0-5s-3.22,5,0,5Z" style="fill:#fff"/><path d="M361.07,276.62a5,5,0,1,0-5-5,5.06,5.06,0,0,0,5,5Z" style="fill:#fff"/><path d="M558.5,44.62c3.22,0,3.23-5,0-5s-3.22,5,0,5Z" style="fill:#fff"/><path d="M209.19,418.37a5,5,0,1,0-5-5,5.05,5.05,0,0,0,5,5Z" style="fill:#fff"/><path d="M77.57,323.87a5,5,0,1,0-5-5,5.06,5.06,0,0,0,5,5Z" style="fill:#fff"/><path d="M5,10a5,5,0,0,0,5-5A5.08,5.08,0,0,0,5,0,5.06,5.06,0,0,0,0,5a5.09,5.09,0,0,0,5,5Z" style="fill:#fff"/><path d="M698.57,295.19a5,5,0,1,0-5-5,5.06,5.06,0,0,0,5,5Z" style="fill:#fff"/><path d="M676.63,388a5,5,0,1,0-5-5,5.06,5.06,0,0,0,5,5Z" style="fill:#fff"/><path d="M609.13,318c3.22,0,3.22-5,0-5s-3.22,5,0,5Z" style="fill:#fff"/><path d="M518,211.69c3.22,0,3.23-5,0-5s-3.22,5,0,5Z" style="fill:#fff"/><path d="M683.38,137.44c3.22,0,3.22-5,0-5s-3.22,5,0,5Z" style="fill:#fff"/><path d="M732.32,28.56a5,5,0,1,0-5-5,5.06,5.06,0,0,0,5,5Z" style="fill:#fff"/><path d="M231.13,181.31c3.22,0,3.22-5,0-5s-3.22,5,0,5Z" style="fill:#fff"/><path d="M194,35.31a5,5,0,1,0-5-5,5.05,5.05,0,0,0,5,5Z" style="fill:#fff"/><path d="M101.19,215.87a5,5,0,1,0-5-5,5.05,5.05,0,0,0,5,5Z" style="fill:#fff"/><path d="M592.25,139.94a5,5,0,1,0-5-5,5.05,5.05,0,0,0,5,5Z" style="fill:#fff"/></g></g></svg>
