<svg xmlns="http://www.w3.org/2000/svg" viewBox="0 0 296.97 92.64"><title>type</title><g id="Layer_2" data-name="Layer 2"><g id="Layer_1-2" data-name="Layer 1"><path d="M3.12,29V17.57l-.24-.24H0v-.24L6.24,8.88h.24v6.29H13v2.16H6.48v9c0,4.84.72,6.48,3.5,6.48a9.44,9.44,0,0,0,3.17-.53l.53,1A10.34,10.34,0,0,1,8.16,35C4.75,35,3.12,33.51,3.12,29Z" style="fill:#231f20"/><path d="M38.74,32.4v2.16H28.9V32.4H32l.24-.24V23c0-4.13-.87-5.57-4.42-5.57a25.36,25.36,0,0,0-5.33.68v14l.24.24h3.12v2.16H16V32.4h2.88l.24-.24V4.8L15.94,3.26V3l6.28-3,.29.14V17.19c2.79-1.78,5-2.79,6.87-2.79,4.32,0,6.24,2,6.24,5.62V32.16l.24.24Z" style="fill:#231f20"/><path d="M41.76,32.4h2.88l.24-.24v-13l-3.22-1.54v-.24L48,14.4l.29.15V32.16l.24.24h2.88v2.16h-9.6ZM43.58,6.82a2.62,2.62,0,1,1,5.24,0,2.62,2.62,0,0,1-5.24,0Z" style="fill:#231f20"/><path d="M54.86,33.89v-5h.24l2.4,2.64a5.48,5.48,0,0,0,3.84,1.73c2,0,3.32-1,3.32-2.74,0-2.4-2.31-3.17-4.81-4.51-2.92-1.58-4.7-3.26-4.7-6,0-3.21,2.59-5.52,6.82-5.52a14.29,14.29,0,0,1,5.09.91v4.9h-.24l-2.5-2.78a4.55,4.55,0,0,0-3.17-1.25c-1.92,0-3.12,1.1-3.12,2.69,0,2.25,2.26,3.31,4.51,4.51,2.45,1.34,5.09,2.73,5.09,6.05S64.66,35,61,35A17.19,17.19,0,0,1,54.86,33.89Z" style="fill:#231f20"/><path d="M81.55,32.4h2.88l.24-.24v-13l-3.22-1.54v-.24l6.29-2.93.29.15V32.16l.24.24h2.88v2.16h-9.6ZM83.37,6.82a2.62,2.62,0,1,1,5.24,0,2.62,2.62,0,0,1-5.24,0Z" style="fill:#231f20"/><path d="M94.65,33.89v-5h.24l2.4,2.64a5.48,5.48,0,0,0,3.84,1.73c2,0,3.32-1,3.32-2.74,0-2.4-2.31-3.17-4.81-4.51-2.92-1.58-4.7-3.26-4.7-6,0-3.21,2.59-5.52,6.82-5.52a14.29,14.29,0,0,1,5.09.91v4.9h-.24l-2.5-2.78a4.55,4.55,0,0,0-3.17-1.25c-1.92,0-3.12,1.1-3.12,2.69,0,2.25,2.26,3.31,4.51,4.51,2.45,1.34,5.09,2.73,5.09,6.05s-3,5.61-6.62,5.61A17.19,17.19,0,0,1,94.65,33.89Z" style="fill:#231f20"/><path d="M123.6,29V17.57l-.24-.24h-2.88v-.24l6.24-8.21H127v6.29h6.48v2.16H127v9c0,4.84.72,6.48,3.5,6.48a9.48,9.48,0,0,0,3.17-.53l.53,1A10.37,10.37,0,0,1,128.64,35C125.23,35,123.6,33.51,123.6,29Z" style="fill:#231f20"/><path d="M157.53,15.17v.14l-2.59,2.26-7.73,18.29-4.61,10.7-4.12-1.77,7-8.5-8.07-18.72-2.74-2.16v-.24h9.65v.14l-3.12,2.31,5.91,14.21,5.57-14.26-3.41-2.16v-.24Z" style="fill:#231f20"/><path d="M180.09,24.15c0,5.47-3.65,10.89-10,10.89a10.12,10.12,0,0,1-4.9-1.15V43.2l.24.24h3.6V45.6H158.73V43.44h2.88l.24-.24V19.11l-3.21-1.54v-.24l5.8-3,.29.15.43,2.73c2.36-1.53,4.61-2.83,7.3-2.83C177.26,14.4,180.09,19.2,180.09,24.15ZM176.4,25.2c0-4.46-1.68-8-5.86-8a19.48,19.48,0,0,0-5.33.87v12a5.67,5.67,0,0,0,5.38,3C174.33,33.12,176.4,30.05,176.4,25.2Z" style="fill:#231f20"/><path d="M200.88,23.86H187.63c.05,6.29,3.31,8.59,7.63,8.59a10.73,10.73,0,0,0,4.94-1.2l.53,1A11.09,11.09,0,0,1,193.29,35c-5.85,0-9.36-4.41-9.36-9.89,0-7,5.09-10.8,9.46-10.8,4,0,7.58,2.36,7.58,7.88C201,22.75,200.92,23.28,200.88,23.86Zm-13.16-1.73h9.51c-.1-4-1.59-5.81-4.18-5.81C190.75,16.32,188.2,17.81,187.72,22.13Z" style="fill:#231f20"/><path d="M214.7,32.4h2.88l.24-.24V17.62l-.24-.29H214.7V15.17h2.88l.24-.24v-1.3c0-9.74,2.49-13.49,8.69-13.49A12,12,0,0,1,231,1V6.72h-.24l-2.64-3.36A4.78,4.78,0,0,0,225,2.3c-2.64,0-3.84,2.21-3.84,6.82v5.81l.24.24h7v2.16h-7l-.24.29V32.16l.24.24H225v2.16H214.7Z" style="fill:#231f20"/><path d="M229.77,25.11c0-5.72,3.74-10.71,10.13-10.71,5.42,0,9.55,3.7,9.55,9.94,0,5.66-3.79,10.7-10,10.7C233.85,35,229.77,31.3,229.77,25.11Zm15.94.43c0-5.28-2.83-9.22-6.58-9.22-3.17,0-5.66,2.35-5.66,7.54s2.68,9.26,6.57,9.26C243.35,33.12,245.71,30.67,245.71,25.54Z" style="fill:#231f20"/><path d="M267,14.74v3.5a12.79,12.79,0,0,0-2.45-.24,23,23,0,0,0-5,.67V32.16l.24.24h3.6v2.16H253V32.4h2.88l.24-.24v-13l-3.21-1.54v-.24l5.8-3,.29.15.48,3.26c2-1.49,4.71-3.36,6.29-3.36A2.24,2.24,0,0,1,267,14.74Z" style="fill:#231f20"/><path d="M297,32.4v2.16h-6.48v-2c-2.26,1.54-4.23,2.45-6.34,2.45a4.49,4.49,0,0,1-4.8-4.61c0-4.41,4.66-6,11.14-6.33V22.61c0-3.79-.87-5.62-4.37-5.62a9.62,9.62,0,0,0-5.57,1.83l-.62-1.15a10.15,10.15,0,0,1,7.49-3.27c3.88,0,6.43,2.26,6.43,6.29V32.16l.24.24Zm-6.48-.67v-6.1c-4.08.29-7.73,1-7.73,4.18,0,1.87,1.3,2.74,3.12,2.74A14.79,14.79,0,0,0,290.49,31.73Z" style="fill:#231f20"/><path d="M1.15,82.9c0-7,4.75-10.9,10.18-10.9a12.52,12.52,0,0,1,5.28,1.06v5.66h-.24l-2.83-3.6A4.7,4.7,0,0,0,10.23,74c-3.46,0-5.38,3-5.38,7.39,0,6.15,3,8.69,7.1,8.69a10.77,10.77,0,0,0,4.95-1.2l.53,1a10.6,10.6,0,0,1-7.2,2.78C4.13,92.64,1.15,88.13,1.15,82.9Z" style="fill:#231f20"/><path d="M20.5,90h2.88l.24-.24V62.4L20.4,60.86v-.24l6.29-3,.29.14v32l.24.24h3.12v2.16H20.5Z" style="fill:#231f20"/><path d="M51,90v2.16H44.54v-2c-2.25,1.54-4.22,2.45-6.33,2.45A4.49,4.49,0,0,1,33.41,88c0-4.41,4.65-6,11.13-6.33V80.21c0-3.79-.86-5.62-4.36-5.62a9.62,9.62,0,0,0-5.57,1.83L34,75.27A10.16,10.16,0,0,1,41.47,72c3.89,0,6.43,2.26,6.43,6.29V89.76l.25.24Zm-6.49-.67v-6.1c-4.08.29-7.72,1-7.72,4.18,0,1.87,1.29,2.74,3.12,2.74A14.73,14.73,0,0,0,44.54,89.33Z" style="fill:#231f20"/><path d="M54.53,91.49v-5h.24l2.4,2.64A5.46,5.46,0,0,0,61,90.82c2,0,3.31-1,3.31-2.74,0-2.4-2.3-3.17-4.8-4.51-2.93-1.58-4.7-3.26-4.7-6,0-3.21,2.59-5.52,6.81-5.52a14.29,14.29,0,0,1,5.09.91v4.9h-.24L64,75a4.51,4.51,0,0,0-3.16-1.25c-1.92,0-3.12,1.1-3.12,2.69,0,2.25,2.25,3.31,4.51,4.51,2.45,1.34,5.09,2.73,5.09,6s-3,5.61-6.63,5.61A17.09,17.09,0,0,1,54.53,91.49Z" style="fill:#231f20"/><path d="M71.14,91.49v-5h.24l2.4,2.64a5.46,5.46,0,0,0,3.84,1.73c2,0,3.31-1,3.31-2.74,0-2.4-2.31-3.17-4.8-4.51-2.93-1.58-4.71-3.26-4.71-6,0-3.21,2.6-5.52,6.82-5.52a14.29,14.29,0,0,1,5.09.91v4.9h-.24L80.59,75a4.54,4.54,0,0,0-3.17-1.25c-1.92,0-3.12,1.1-3.12,2.69,0,2.25,2.26,3.31,4.52,4.51,2.44,1.34,5.08,2.73,5.08,6s-3,5.61-6.62,5.61A17.09,17.09,0,0,1,71.14,91.49Z" style="fill:#231f20"/><path d="M119.81,90v2.16h-6.72v-2.3c-2.35,1.44-4.9,2.78-7.44,2.78-4.75,0-7.54-4.8-7.54-9.74,0-5.47,3.17-10.9,10-10.9a11.6,11.6,0,0,1,5,1V62.4l-3.22-1.54v-.24l6.29-3,.29.14v32l.24.24Zm-6.72-.91V76.9a5.78,5.78,0,0,0-5.47-3c-4.23,0-5.81,3.07-5.81,7.92,0,4.47,1.68,8,5.85,8A21.26,21.26,0,0,0,113.09,89.09Z" style="fill:#231f20"/><path d="M140.11,81.46H126.86c0,6.29,3.31,8.59,7.64,8.59a10.73,10.73,0,0,0,4.94-1.2l.53,1a11.13,11.13,0,0,1-7.44,2.78c-5.86,0-9.36-4.41-9.36-9.89,0-7,5.08-10.8,9.45-10.8,4,0,7.59,2.36,7.59,7.88C140.21,80.35,140.16,80.88,140.11,81.46ZM127,79.73h9.5c-.09-4-1.58-5.81-4.17-5.81C130,73.92,127.44,75.41,127,79.73Z" style="fill:#231f20"/><path d="M178.37,90v2.16h-9.6V90h2.88l.24-.24V80.64c0-4.13-.82-5.57-4.18-5.57a22.24,22.24,0,0,0-5.23.72l0-.09a7.82,7.82,0,0,1,.19,1.92V89.76l.24.24h2.88v2.16h-9.6V90H159l.24-.24V80.64c0-4.13-.81-5.57-4.17-5.57a23.2,23.2,0,0,0-5.09.68v14l.24.24h2.88v2.16h-9.6V90h2.88l.24-.24v-13l-3.22-1.53V75l5.81-3,.29.15.38,2.73c2.79-1.82,4.85-2.88,6.72-2.88,3.08,0,4.85,1.06,5.62,3.07,2.88-1.92,5.09-3.07,7-3.07,4.17,0,6,2,6,5.62V89.76l.24.24Z" style="fill:#231f20"/><path d="M181.68,82.71C181.68,77,185.42,72,191.81,72c5.42,0,9.55,3.7,9.55,9.94,0,5.66-3.79,10.7-10,10.7C185.76,92.64,181.68,88.9,181.68,82.71Zm15.93.43c0-5.28-2.83-9.22-6.57-9.22-3.17,0-5.67,2.35-5.67,7.54s2.69,9.26,6.58,9.26C195.26,90.72,197.61,88.27,197.61,83.14Z" style="fill:#231f20"/></g></g></svg>